<svg height="512pt" viewBox="0 -53 512.001 512" width="512pt" xmlns="http://www.w3.org/2000/svg"><path d="m440.980469 398.980469h-369.960938c-35.082031 0-63.519531-28.4375-63.519531-63.519531v-264.441407c0-35.082031 28.4375-63.519531 63.519531-63.519531h369.960938c35.082031 0 63.519531 28.4375 63.519531 63.519531v264.441407c0 35.078124-28.4375 63.519531-63.519531 63.519531zm0 0" fill="#767678"/><path d="m7.5 71.019531v264.441407c0 35.078124 28.4375 63.515624 63.519531 63.515624h83.144531c-21.691406-25.402343-23.105468-65.285156-23.105468-65.285156s-.171875-40.886718-.269532-83.152344c-.105468-48.535156 20.46875-94.902343 56.78125-127.101562 55.574219-49.273438 68.429688-115.9375 68.429688-115.9375h-184.980469c-35.082031 0-63.519531 28.4375-63.519531 63.519531zm0 0" fill="#575757"/><path d="m440.980469 7.5h-369.960938c-35.082031 0-63.519531 28.4375-63.519531 63.519531v21.824219h497v-21.824219c0-35.082031-28.4375-63.519531-63.519531-63.519531zm0 0" fill="#a4e7ff"/><path d="m7.5 71.019531v21.824219h208.238281c31.984375-42.417969 40.261719-85.34375 40.261719-85.34375h-184.980469c-35.082031 0-63.519531 28.4375-63.519531 63.519531zm0 0" fill="#5ad6ff"/><path d="m90.984375 50.171875c0 8.265625-6.703125 14.96875-14.96875 14.96875s-14.964844-6.703125-14.964844-14.96875 6.699219-14.964844 14.964844-14.964844 14.96875 6.699219 14.96875 14.964844zm0 0" fill="#ff8a98"/><path d="m146.027344 50.171875c0 8.265625-6.703125 14.96875-14.96875 14.96875s-14.964844-6.703125-14.964844-14.96875 6.699219-14.964844 14.964844-14.964844 14.96875 6.699219 14.96875 14.964844zm0 0" fill="#eedb00"/><path d="m201.070312 50.171875c0 8.265625-6.703124 14.96875-14.96875 14.96875-8.265624 0-14.964843-6.703125-14.964843-14.96875s6.699219-14.964844 14.964843-14.964844c8.265626 0 14.96875 6.699219 14.96875 14.964844zm0 0" fill="#00c140"/><path d="m177.105469 303.792969-59.453125-46.078125c-3.667969-2.839844-5.8125-7.21875-5.8125-11.855469 0-4.640625 2.144531-9.015625 5.8125-11.855469l59.453125-46.078125c6.546875-5.078125 15.96875-3.882812 21.042969 2.667969 5.074218 6.546875 3.882812 15.96875-2.667969 21.042969l-44.152344 34.222656 44.152344 34.21875c6.550781 5.074219 7.746093 14.496094 2.667969 21.042969-2.957032 3.816406-10.851563 9.632812-21.042969 2.671875zm0 0" fill="#73da8c"/><path d="m334.894531 303.792969 59.453125-46.078125c3.667969-2.839844 5.8125-7.21875 5.8125-11.855469 0-4.640625-2.144531-9.015625-5.8125-11.855469l-59.453125-46.078125c-6.546875-5.078125-15.96875-3.882812-21.042969 2.667969-5.074218 6.546875-3.882812 15.96875 2.667969 21.042969l44.15625 34.222656-44.15625 34.21875c-6.546875 5.074219-7.742187 14.496094-2.667969 21.042969 2.957032 3.816406 10.851563 9.632812 21.042969 2.671875zm0 0" fill="#73da8c"/><path d="m237.742188 330.082031c-8.097657-1.753906-13.238282-9.742187-11.484376-17.835937l30.164063-139.152344c1.753906-8.097656 9.742187-13.234375 17.835937-11.480469 8.097657 1.753907 13.238282 9.738281 11.480469 17.835938l-30.160156 139.148437c-3.574219 15.058594-16.765625 11.714844-17.835937 11.484375zm0 0" fill="#00c140"/><path d="m440.980469 0h-369.960938c-39.160156 0-71.019531 31.859375-71.019531 71.019531v264.441407c0 39.160156 31.859375 71.015624 71.019531 71.015624h369.960938c39.160156 0 71.019531-31.855468 71.019531-71.015624v-264.441407c0-39.160156-31.859375-71.019531-71.019531-71.019531zm0 391.476562h-369.960938c-30.890625 0-56.019531-25.128906-56.019531-56.015624v-235.117188h414.679688c4.144531 0 7.5-3.355469 7.5-7.5 0-4.140625-3.355469-7.5-7.5-7.5h-414.679688v-14.324219c0-30.890625 25.128906-56.019531 56.019531-56.019531h369.960938c30.890625 0 56.019531 25.128906 56.019531 56.019531v14.324219h-36.117188c-4.144531 0-7.5 3.359375-7.5 7.5 0 4.144531 3.355469 7.5 7.5 7.5h36.117188v235.117188c0 30.886718-25.128906 56.015624-56.019531 56.015624zm0 0"/><path d="m76.015625 27.707031c-12.386719 0-22.464844 10.078125-22.464844 22.464844s10.078125 22.46875 22.464844 22.46875c12.390625 0 22.46875-10.082031 22.46875-22.46875s-10.082031-22.464844-22.46875-22.464844zm0 29.933594c-4.117187 0-7.464844-3.351563-7.464844-7.46875s3.347657-7.464844 7.464844-7.464844 7.46875 3.347657 7.46875 7.464844c-.003906 4.117187-3.351563 7.46875-7.46875 7.46875zm0 0"/><path d="m131.058594 27.707031c-12.386719 0-22.464844 10.078125-22.464844 22.464844s10.078125 22.46875 22.464844 22.46875c12.390625 0 22.46875-10.082031 22.46875-22.46875s-10.078125-22.464844-22.46875-22.464844zm0 29.933594c-4.117188 0-7.464844-3.351563-7.464844-7.46875s3.347656-7.464844 7.464844-7.464844c4.117187 0 7.46875 3.347657 7.46875 7.464844s-3.351563 7.46875-7.46875 7.46875zm0 0"/><path d="m186.101562 27.707031c-12.386718 0-22.464843 10.078125-22.464843 22.464844s10.078125 22.46875 22.464843 22.46875c12.390626 0 22.46875-10.082031 22.46875-22.46875s-10.078124-22.464844-22.46875-22.464844zm0 29.933594c-4.117187 0-7.464843-3.351563-7.464843-7.46875s3.347656-7.464844 7.464843-7.464844c4.117188 0 7.46875 3.347657 7.46875 7.464844s-3.351562 7.46875-7.46875 7.46875zm0 0"/><path d="m204.078125 186c-10.921875-14.621094-26.816406-7.683594-31.566406-4l-59.453125 46.074219c-5.460938 4.230469-8.71875 10.878906-8.71875 17.785156s3.257812 13.554687 8.71875 17.785156l27.1875 21.074219c3.277344 2.535156 7.988281 1.9375 10.523437-1.335938 2.539063-3.273437 1.941407-7.984374-1.332031-10.519531l-27.195312-21.074219c-1.816407-1.410156-2.902344-3.628906-2.902344-5.929687s1.085937-4.515625 2.90625-5.929687l59.453125-46.078126c1.582031-1.226562 7.070312-3.046874 10.519531 1.335938 3.453125 4.382812.25 9.296875-1.332031 10.523438l-44.15625 34.21875c-1.832031 1.421874-2.90625 3.609374-2.90625 5.929687 0 2.316406 1.074219 4.507813 2.90625 5.925781l44.15625 34.222656c1.582031 1.226563 5.035156 5.398438 1.332031 10.523438-1.523438 2.105469-5.09375 4.917969-10.714844 1.179688l-7.566406-5.859376c-3.273438-2.539062-7.984375-1.941406-10.523438 1.332032-2.535156 3.277344-1.9375 7.988281 1.335938 10.523437l7.757812 6.011719c.117188.09375 18.550782 13.214844 31.566407-4 12.289062-16.257812.75-27.886719-4.003907-31.566406l-36.5-28.292969 36.503907-28.292969c4.753906-3.679687 14.925781-16.945312 4.003906-31.566406zm0 0"/><path d="m398.941406 228.074219-59.453125-46.078125c-4.75-3.679688-20.644531-10.617188-31.566406 4.003906s-.75 27.882812 4 31.566406l36.507813 28.292969-36.507813 28.292969c-4.75 3.679687-16.289063 15.3125-4 31.566406 13.015625 17.214844 31.449219 4.09375 31.566406 4l59.453125-46.078125c5.457032-4.226563 8.714844-10.875 8.714844-17.78125.003906-6.90625-3.253906-13.554687-8.714844-17.785156zm-9.1875 23.710937-59.257812 45.925782c-5.625 3.738281-9.195313.929687-10.71875-1.179688-3.699219-5.125-.25-9.296875 1.332031-10.523438l44.15625-34.222656c1.832031-1.417968 2.90625-3.609375 2.90625-5.925781 0-2.320313-1.074219-4.507813-2.90625-5.929687l-44.15625-34.21875c-1.582031-1.226563-4.78125-6.140626-1.332031-10.523438 3.449218-4.382812 8.9375-2.5625 10.519531-1.335938l59.457031 46.078126c1.816406 1.410156 2.902344 3.628906 2.902344 5.929687.003906 2.300781-1.082031 4.515625-2.902344 5.925781zm0 0"/><path d="m275.847656 154.28125c-12.128906-2.625-24.128906 5.101562-26.757812 17.222656l-30.160156 139.152344c-2.628907 12.125 5.097656 24.128906 17.222656 26.753906 0 0 20.753906 5.734375 26.722656-17.078125.011719-.046875.023438-.09375.035156-.144531l30.160156-139.148438c2.628907-12.125-5.097656-24.128906-17.222656-26.757812zm2.5625 23.578125-30.144531 139.078125c-1.933594 7.925781-8.917969 5.820312-8.9375 5.816406-4.042969-.878906-6.617187-4.878906-5.738281-8.921875l30.160156-139.148437c.878906-4.042969 4.878906-6.613282 8.917969-5.742188 4.042969.875 6.617187 4.878906 5.742187 8.917969zm0 0"/></svg>